<svg width="500" height="500" viewBox="0 0 500 500" fill="none" xmlns="http://www.w3.org/2000/svg">
<g clip-path="url(#clip0_1_2)">
<mask id="path-1-inside-1_1_2" fill="white">
<path fill-rule="evenodd" clip-rule="evenodd" d="M89.9346 98.9049C65.5197 71.3583 20 88.6273 20 125.436V402.786C20 406.309 21.8536 409.571 24.8796 411.375L124.88 470.987C131.545 474.96 140 470.157 140 462.397V159.186C140 156.742 139.105 154.382 137.484 152.553L89.9346 98.9049Z"/>
</mask>
<path fill-rule="evenodd" clip-rule="evenodd" d="M89.9346 98.9049C65.5197 71.3583 20 88.6273 20 125.436V402.786C20 406.309 21.8536 409.571 24.8796 411.375L124.88 470.987C131.545 474.96 140 470.157 140 462.397V159.186C140 156.742 139.105 154.382 137.484 152.553L89.9346 98.9049Z" fill="#CDDCF3"/>
<path d="M89.9346 98.9049L97.4183 92.272L97.4183 92.272L89.9346 98.9049ZM137.484 152.553L130 159.186L137.484 152.553ZM124.88 470.987L130 462.397L124.88 470.987ZM24.8796 411.375L19.7592 419.965L24.8796 411.375ZM30 125.436C30 97.8296 64.1397 84.8778 82.451 105.538L97.4183 92.272C66.8996 57.8388 10 79.425 10 125.436H30ZM30 402.786V125.436H10V402.786H30ZM130 462.397L30 402.786L19.7592 419.965L119.759 479.576L130 462.397ZM130 159.186V462.397H150V159.186H130ZM82.451 105.538L130 159.186L144.967 145.92L97.4183 92.272L82.451 105.538ZM150 159.186C150 154.297 148.21 149.578 144.967 145.92L130 159.186L130 159.186H150ZM119.759 479.576C133.091 487.523 150 477.917 150 462.397H130C130 462.427 129.998 462.444 129.997 462.449C129.997 462.454 129.997 462.451 129.999 462.444C130.001 462.436 130.004 462.426 130.009 462.416C130.014 462.405 130.019 462.396 130.023 462.388C130.032 462.373 130.038 462.369 130.033 462.373C130.031 462.375 130.027 462.379 130.021 462.383C130.015 462.388 130.008 462.392 130 462.397C129.992 462.401 129.984 462.405 129.978 462.408C129.971 462.411 129.965 462.412 129.963 462.413C129.957 462.415 129.963 462.412 129.981 462.412C129.989 462.412 130 462.413 130.011 462.414C130.023 462.416 130.033 462.418 130.041 462.42C130.049 462.422 130.051 462.423 130.046 462.421C130.041 462.419 130.026 462.412 130 462.397L119.759 479.576ZM10 402.786C10 409.831 13.7073 416.357 19.7592 419.965L30 402.786L30 402.786H10Z" fill="#364DC7" mask="url(#path-1-inside-1_1_2)"/>
<g style="mix-blend-mode:overlay" filter="url(#filter0_f_1_2)">
<mask id="mask0_1_2" style="mask-type:alpha" maskUnits="userSpaceOnUse" x="20" y="53" width="460" height="240">
<path d="M250 173L20 53V173L250 293L480 173V53L250 173Z" fill="black"/>
</mask>
<g mask="url(#mask0_1_2)">
<path d="M20 20L140 138.5V480H20V20Z" fill="#080323"/>
</g>
</g>
</g>
<g clip-path="url(#clip1_1_2)">
<mask id="path-6-inside-2_1_2" fill="white">
<path fill-rule="evenodd" clip-rule="evenodd" d="M360 155.392L480 20V408.466L360 480V155.392Z"/>
</mask>
<path fill-rule="evenodd" clip-rule="evenodd" d="M360 155.392L480 20V408.466L360 480V155.392Z" fill="#CDDCF3"/>
<path d="M480 20H490V-6.35909L472.516 13.3671L480 20ZM360 155.392L352.516 148.759L350 151.598V155.392H360ZM480 408.466L485.12 417.056L490 414.147V408.466H480ZM360 480H350V497.603L365.12 488.59L360 480ZM472.516 13.3671L352.516 148.759L367.484 162.025L487.484 26.6329L472.516 13.3671ZM490 408.466V20H470V408.466H490ZM474.88 399.877L354.88 471.41L365.12 488.59L485.12 417.056L474.88 399.877ZM350 155.392V480H370V155.392H350Z" fill="#364DC7" mask="url(#path-6-inside-2_1_2)"/>
<g style="mix-blend-mode:overlay" filter="url(#filter1_f_1_2)">
<mask id="mask1_1_2" style="mask-type:alpha" maskUnits="userSpaceOnUse" x="20" y="53" width="460" height="240">
<path d="M250 173L20 53V173L250 293L480 173V53L250 173Z" fill="black"/>
</mask>
<g mask="url(#mask1_1_2)">
<path d="M480 20L360 138.5V480H480V20Z" fill="#080323"/>
</g>
</g>
</g>
<path d="M250 140L34.6257 27.6308C27.968 24.1572 20 28.9873 20 36.4966V133.938C20 137.664 22.0712 141.081 25.3743 142.804L250 260L474.626 142.804C477.929 141.081 480 137.664 480 133.938V36.4966C480 28.9873 472.032 24.1572 465.374 27.6308L250 140Z" fill="#364DC7"/>
<defs>
<filter id="filter0_f_1_2" x="0" y="33" width="500" height="280" filterUnits="userSpaceOnUse" color-interpolation-filters="sRGB">
<feFlood flood-opacity="0" result="BackgroundImageFix"/>
<feBlend mode="normal" in="SourceGraphic" in2="BackgroundImageFix" result="shape"/>
<feGaussianBlur stdDeviation="10" result="effect1_foregroundBlur_1_2"/>
</filter>
<filter id="filter1_f_1_2" x="0" y="33" width="500" height="280" filterUnits="userSpaceOnUse" color-interpolation-filters="sRGB">
<feFlood flood-opacity="0" result="BackgroundImageFix"/>
<feBlend mode="normal" in="SourceGraphic" in2="BackgroundImageFix" result="shape"/>
<feGaussianBlur stdDeviation="10" result="effect1_foregroundBlur_1_2"/>
</filter>
<clipPath id="clip0_1_2">
<rect width="120" height="460" fill="white" transform="translate(20 20)"/>
</clipPath>
<clipPath id="clip1_1_2">
<path d="M360 30C360 24.4771 364.477 20 370 20H380C435.228 20 480 64.7715 480 120V470C480 475.523 475.523 480 470 480H370C364.477 480 360 475.523 360 470V30Z" fill="white"/>
</clipPath>
</defs>
</svg>
